<svg width="52" height="52" viewBox="0 0 52 52" fill="none" xmlns="http://www.w3.org/2000/svg">
<path d="M27.616 17.54C27.616 17.0733 27.84 16.6907 28.288 16.392C28.736 16.0747 29.296 15.8413 29.968 15.692C30.6587 15.524 31.4053 15.4493 32.208 15.468C33.0293 15.468 33.804 15.5613 34.532 15.748C35.26 15.916 35.8853 16.1867 36.408 16.56C36.9493 16.9147 37.2947 17.3627 37.444 17.904C37.6867 18.8187 37.7987 19.6493 37.78 20.396C37.78 21.124 37.668 21.8987 37.444 22.72C37.2387 23.4293 36.7533 24.0173 35.988 24.484C35.2227 24.932 34.2427 25.2027 33.048 25.296C30.7333 25.5013 28.4747 25.604 26.272 25.604C24.0693 25.604 21.8013 25.5013 19.468 25.296C18.292 25.2027 17.3213 24.932 16.556 24.484C15.7907 24.0173 15.3053 23.4293 15.1 22.72C14.8573 21.8987 14.736 21.124 14.736 20.396C14.7547 19.6493 14.876 18.8187 15.1 17.904C15.2307 17.3627 15.5573 16.9147 16.08 16.56C16.6213 16.2053 17.256 15.9347 17.984 15.748C18.712 15.5613 19.4773 15.468 20.28 15.468C21.0827 15.4493 21.82 15.524 22.492 15.692C23.1827 15.8413 23.752 16.0747 24.2 16.392C24.648 16.6907 24.872 17.0733 24.872 17.54V18.184C25.3947 18.128 25.8613 18.1 26.272 18.1C26.6827 18.1 27.1307 18.128 27.616 18.184V17.54ZM23.92 21.04C23.8267 21.1893 23.808 21.3107 23.864 21.404C23.9387 21.4973 24.0787 21.6 24.284 21.712C24.9187 22.0667 25.5813 22.244 26.272 22.244C26.9813 22.2253 27.6533 22.048 28.288 21.712C28.568 21.5627 28.6707 21.3573 28.596 21.096C28.5587 20.984 28.4747 20.9 28.344 20.844C28.232 20.7693 28.1013 20.7693 27.952 20.844C27.4667 21.124 26.8973 21.264 26.244 21.264C25.6093 21.2453 25.0493 21.096 24.564 20.816C24.4707 20.76 24.3493 20.7507 24.2 20.788C24.0693 20.8253 23.976 20.9093 23.92 21.04ZM21.54 31.008C21.54 30.5787 21.5867 30.2613 21.68 30.056C20.728 30.0187 19.804 29.9813 18.908 29.944C18.012 29.888 17.144 29.832 16.304 29.776C15.5013 29.72 14.8667 29.5333 14.4 29.216C13.952 28.8987 13.728 28.432 13.728 27.816C13.728 27.2747 13.952 26.8173 14.4 26.444C14.8667 26.0707 15.5013 25.912 16.304 25.968C17.7973 26.08 19.384 26.164 21.064 26.22C22.744 26.2573 24.4427 26.276 26.16 26.276C27.896 26.276 29.6133 26.248 31.312 26.192C33.0293 26.136 34.6627 26.0613 36.212 25.968C37.0333 25.912 37.668 26.0707 38.116 26.444C38.5827 26.8173 38.816 27.2747 38.816 27.816C38.816 28.432 38.5827 28.908 38.116 29.244C37.668 29.5613 37.024 29.7387 36.184 29.776C34.504 29.888 32.74 29.972 30.892 30.028C30.948 30.1587 30.9853 30.308 31.004 30.476C31.0227 30.6253 31.032 30.8027 31.032 31.008V31.148C31.816 31.1107 32.5907 31.0827 33.356 31.064C34.1213 31.0267 34.8587 30.98 35.568 30.924C37.08 30.812 37.836 31.3253 37.836 32.464C37.836 32.912 37.6773 33.2853 37.36 33.584C37.0427 33.8827 36.632 34.0413 36.128 34.06C34.56 34.0973 33.0667 34.3213 31.648 34.732C30.248 35.1427 29.0533 35.6933 28.064 36.384C27.9707 36.44 27.9147 36.5147 27.896 36.608C27.8773 36.6827 27.8773 36.7573 27.896 36.832C27.9333 36.9067 27.9893 36.9533 28.064 36.972C28.1573 36.9907 28.26 36.972 28.372 36.916C29.2493 36.3933 30.2013 35.9453 31.228 35.572C32.2547 35.18 33.3373 34.9653 34.476 34.928C35.596 34.8907 36.4733 35.096 37.108 35.544C37.7427 35.992 38.06 36.636 38.06 37.476C38.06 38.372 37.7333 38.9973 37.08 39.352C36.4267 39.7067 35.4653 39.9307 34.196 40.024C32.8333 40.1173 31.4333 40.1827 29.996 40.22C28.5773 40.2573 27.1493 40.276 25.712 40.276C24.2933 40.276 22.8933 40.248 21.512 40.192C20.1307 40.1547 18.796 40.0893 17.508 39.996C16.5373 39.94 15.7813 39.7813 15.24 39.52C14.6987 39.2587 14.428 38.7547 14.428 38.008C14.428 37.168 14.736 36.552 15.352 36.16C15.9867 35.7493 16.7987 35.4973 17.788 35.404C18.6653 35.3293 19.5053 35.236 20.308 35.124C21.1293 34.9933 21.988 34.7693 22.884 34.452C22.9773 34.4147 23.0333 34.3587 23.052 34.284C23.0893 34.1907 23.0987 34.1067 23.08 34.032C23.0613 33.9387 23.0147 33.8733 22.94 33.836C22.8653 33.78 22.7813 33.7707 22.688 33.808C21.8667 34.0693 21.0173 34.284 20.14 34.452C19.2627 34.62 18.3853 34.7227 17.508 34.76C16.4813 34.8347 15.7533 34.676 15.324 34.284C14.8947 33.892 14.68 33.3693 14.68 32.716C14.68 32.1187 14.8667 31.6613 15.24 31.344C15.632 31.008 16.2107 30.868 16.976 30.924C17.704 30.98 18.4507 31.0267 19.216 31.064C19.9813 31.0827 20.756 31.1107 21.54 31.148V31.008Z" fill="#E04C4C"/>
<circle cx="26" cy="26" r="23.5" stroke="#E04C4C" stroke-width="5"/>
</svg>
