<svg width="52" height="52" viewBox="0 0 52 52" fill="none" xmlns="http://www.w3.org/2000/svg">
<path d="M17.088 21.74H16.892C15.828 21.684 15.044 21.4413 14.54 21.012C14.0547 20.5827 13.812 20.06 13.812 19.444C13.812 18.828 14.0547 18.296 14.54 17.848C15.044 17.4 15.828 17.1573 16.892 17.12C17.004 17.12 17.116 17.12 17.228 17.12C17.34 17.1013 17.452 17.092 17.564 17.092C17.4147 16.9053 17.3027 16.7093 17.228 16.504C17.172 16.2987 17.144 16.112 17.144 15.944C17.144 15.44 17.4987 15.0107 18.208 14.656C18.9173 14.3013 19.8507 14.124 21.008 14.124C22.1467 14.124 23.0613 14.3013 23.752 14.656C24.4613 15.0107 24.816 15.44 24.816 15.944C24.816 16.112 24.788 16.2987 24.732 16.504C24.676 16.6907 24.5733 16.8773 24.424 17.064C24.6293 17.0827 24.8347 17.092 25.04 17.092C25.264 17.092 25.488 17.1013 25.712 17.12C26.7573 17.1573 27.532 17.4 28.036 17.848C28.54 18.296 28.792 18.828 28.792 19.444C28.792 20.06 28.54 20.5827 28.036 21.012C27.532 21.4413 26.7573 21.684 25.712 21.74H25.376C25.6373 21.9453 25.9267 22.1413 26.244 22.328C26.58 22.5147 26.9347 22.7107 27.308 22.916C27.5693 23.0653 27.812 23.2427 28.036 23.448C28.26 23.6533 28.4467 23.9147 28.596 24.232C28.7453 24.5493 28.848 24.9413 28.904 25.408C28.9787 25.856 28.9973 26.3973 28.96 27.032C28.904 27.7413 28.8013 28.32 28.652 28.768C28.5213 29.1973 28.3347 29.5333 28.092 29.776C27.8493 30 27.5413 30.1587 27.168 30.252C26.8133 30.3267 26.3933 30.364 25.908 30.364C25.2733 30.364 24.7413 30.3267 24.312 30.252C23.8827 30.1773 23.528 30.0187 23.248 29.776C22.9867 29.5333 22.8 29.1973 22.688 28.768C22.576 28.3387 22.52 27.76 22.52 27.032C22.52 26.192 22.4267 25.492 22.24 24.932C22.072 24.3533 21.6893 23.8307 21.092 23.364C20.9613 23.2707 20.84 23.2333 20.728 23.252C20.6347 23.252 20.56 23.2893 20.504 23.364C20.448 23.4387 20.4293 23.532 20.448 23.644C20.4853 23.756 20.5693 23.8493 20.7 23.924C21.1107 24.1853 21.372 24.596 21.484 25.156C21.6147 25.716 21.68 26.416 21.68 27.256C21.68 27.9093 21.6053 28.432 21.456 28.824C21.3253 29.216 21.1013 29.524 20.784 29.748C20.4667 29.9533 20.0467 30.0933 19.524 30.168C19.0013 30.2427 18.3573 30.28 17.592 30.28C16.2853 30.28 15.2493 30.028 14.484 29.524C13.7373 29.02 13.336 28.152 13.28 26.92C13.224 25.8 13.3453 24.9507 13.644 24.372C13.9613 23.7747 14.512 23.2893 15.296 22.916C15.688 22.7293 16.0333 22.552 16.332 22.384C16.6307 22.1973 16.8827 21.9827 17.088 21.74ZM36.604 27.06C36.5667 27.2653 36.5387 27.452 36.52 27.62C36.52 27.788 36.5013 27.9653 36.464 28.152C36.3333 29.0853 35.9507 29.776 35.316 30.224C34.6813 30.672 33.8693 30.896 32.88 30.896C32.32 30.896 31.8067 30.8307 31.34 30.7C30.892 30.5693 30.5093 30.3827 30.192 30.14C29.8933 29.8787 29.6693 29.5613 29.52 29.188C29.3893 28.796 29.3613 28.3387 29.436 27.816C29.6413 26.248 29.744 24.596 29.744 22.86C29.744 21.1053 29.6507 19.5 29.464 18.044C29.296 16.8867 29.5387 16.0467 30.192 15.524C30.8453 15.0013 31.7413 14.74 32.88 14.74C33.8693 14.74 34.6813 14.964 35.316 15.412C35.9507 15.8413 36.3333 16.532 36.464 17.484C36.5013 17.6893 36.5293 17.904 36.548 18.128C36.5667 18.352 36.5947 18.576 36.632 18.8L37.5 18.716C38.1533 18.6413 38.6573 18.94 39.012 19.612C39.3667 20.2653 39.544 21.376 39.544 22.944C39.544 24.4747 39.3667 25.576 39.012 26.248C38.6573 26.92 38.1533 27.2187 37.5 27.144L36.604 27.06ZM14.344 38.288C14.2507 37.9333 14.176 37.532 14.12 37.084C14.0827 36.6547 14.0547 36.2253 14.036 35.796C14.036 35.348 14.0547 34.9187 14.092 34.508C14.1293 34.0787 14.1853 33.696 14.26 33.36C14.3907 32.7813 14.6427 32.3707 15.016 32.128C15.3893 31.8667 15.9493 31.6893 16.696 31.596C18.0587 31.4093 19.4773 31.2693 20.952 31.176C22.4267 31.0827 23.9107 31.036 25.404 31.036C26.916 31.036 28.4093 31.0827 29.884 31.176C31.3773 31.2693 32.8147 31.4093 34.196 31.596C34.924 31.6893 35.4653 31.8667 35.82 32.128C36.1933 32.3707 36.4547 32.7813 36.604 33.36C36.6787 33.696 36.7347 34.0787 36.772 34.508C36.8093 34.9187 36.8187 35.348 36.8 35.796C36.8 36.2253 36.772 36.6547 36.716 37.084C36.6787 37.532 36.604 37.9333 36.492 38.288C36.3427 38.8853 36.1 39.3053 35.764 39.548C35.4467 39.8093 34.924 39.9867 34.196 40.08C32.796 40.2293 31.3587 40.332 29.884 40.388C28.4093 40.4627 26.9253 40.5 25.432 40.5C23.9387 40.5 22.4547 40.4627 20.98 40.388C19.5053 40.332 18.0773 40.2293 16.696 40.08C15.9493 40.0053 15.408 39.8373 15.072 39.576C14.736 39.3147 14.4933 38.8853 14.344 38.288ZM23.668 35.46C23.5933 35.404 23.4907 35.3947 23.36 35.432C23.2293 35.4693 23.1267 35.5533 23.052 35.684C22.9213 35.9453 23.0427 36.188 23.416 36.412C24.0507 36.748 24.7227 36.916 25.432 36.916C26.1413 36.8973 26.8133 36.7293 27.448 36.412C27.56 36.3187 27.644 36.2253 27.7 36.132C27.7747 36.0387 27.784 35.9173 27.728 35.768C27.6907 35.656 27.6067 35.5627 27.476 35.488C27.364 35.4133 27.252 35.4133 27.14 35.488C26.6173 35.768 26.0293 35.908 25.376 35.908C24.7413 35.8893 24.172 35.74 23.668 35.46Z" fill="#8D4BF6"/>
<circle cx="26" cy="26" r="23.5" stroke="#8D4BF6" stroke-width="5"/>
</svg>
