<svg width="179" height="37" viewBox="0 0 179 37" fill="none" xmlns="http://www.w3.org/2000/svg">
<path d="M13.824 20.008C13.9307 20.1147 14.08 20.1253 14.272 20.04C14.464 19.9547 14.5173 19.8053 14.432 19.592C14.1333 18.9307 13.7493 18.248 13.28 17.544C12.8107 16.84 12.2667 16.1893 11.648 15.592C11.0293 14.9733 10.336 14.4507 9.568 14.024C8.82133 13.5973 8.01067 13.32 7.136 13.192C5.30133 12.8933 3.85067 12.2533 2.784 11.272C1.71733 10.2693 1.184 8.82933 1.184 6.952C1.184 5.928 1.44 5 1.952 4.168C2.48533 3.336 3.21067 2.632 4.128 2.056C5.04533 1.45867 6.13333 0.999998 7.392 0.679998C8.65067 0.359999 10.016 0.199999 11.488 0.199999C12.5973 0.199999 13.792 0.317332 15.072 0.551998C16.352 0.765333 17.5253 1.128 18.592 1.64C19.6587 2.152 20.5333 2.824 21.216 3.656C21.8987 4.488 22.1973 5.512 22.112 6.728C22.0693 7.51733 21.8987 8.18933 21.6 8.744C21.3227 9.27733 20.96 9.71467 20.512 10.056C20.064 10.376 19.5627 10.6107 19.008 10.76C18.4533 10.9093 17.888 10.984 17.312 10.984C16.4373 10.984 15.648 10.7813 14.944 10.376C14.2613 9.97067 13.6 9.49067 12.96 8.936C12.6187 8.63733 12.2987 8.36 12 8.104C11.7013 7.848 11.4027 7.592 11.104 7.336C10.8267 7.08 10.528 6.81333 10.208 6.536C9.90933 6.25867 9.58933 5.94933 9.248 5.608C9.12 5.48 9.00267 5.416 8.896 5.416C8.78933 5.416 8.69333 5.45867 8.608 5.544C8.544 5.608 8.512 5.69333 8.512 5.8C8.512 5.90667 8.56533 6.01333 8.672 6.12C9.07733 6.568 9.54667 7.06933 10.08 7.624C10.6133 8.15733 11.2427 8.712 11.968 9.288C12.6933 9.864 13.5253 10.44 14.464 11.016C15.4027 11.592 16.48 12.1253 17.696 12.616C18.4 12.9147 19.0827 13.2987 19.744 13.768C20.4267 14.216 21.0133 14.7707 21.504 15.432C21.9947 16.0933 22.368 16.8613 22.624 17.736C22.9013 18.6107 22.9973 19.6027 22.912 20.712C22.8267 21.8853 22.4747 22.9307 21.856 23.848C21.2587 24.7653 20.4693 25.5333 19.488 26.152C18.5067 26.792 17.376 27.272 16.096 27.592C14.8373 27.9333 13.504 28.104 12.096 28.104C10.6453 28.104 9.28 27.9333 8 27.592C6.74133 27.272 5.62133 26.792 4.64 26.152C3.68 25.512 2.88 24.7227 2.24 23.784C1.62133 22.8453 1.216 21.768 1.024 20.552C0.896 19.6987 0.874667 18.8667 0.96 18.056C1.06667 17.2453 1.30133 16.52 1.664 15.88C2.048 15.24 2.58133 14.728 3.264 14.344C3.94667 13.96 4.82133 13.768 5.888 13.768C6.89067 13.768 7.78667 13.96 8.576 14.344C9.38667 14.7067 10.112 15.1867 10.752 15.784C11.392 16.36 11.9573 17.0213 12.448 17.768C12.9387 18.5147 13.3973 19.2613 13.824 20.008ZM27.491 17.16C27.1283 17.16 26.787 17.1173 26.467 17.032C26.1683 16.9253 25.9017 16.808 25.667 16.68C24.643 16.0827 24.131 14.92 24.131 13.192C24.131 12.552 24.2057 12.0293 24.355 11.624C24.5257 11.1973 24.7603 10.856 25.059 10.6C25.3577 10.3227 25.7203 10.12 26.147 9.992C26.5737 9.84267 27.0537 9.71467 27.587 9.608C27.6083 9.39467 27.619 9.192 27.619 9C27.619 8.78667 27.6297 8.57333 27.651 8.36C27.715 7.54933 27.843 6.888 28.035 6.376C28.2483 5.864 28.515 5.46933 28.835 5.192C29.1763 4.89333 29.5817 4.69067 30.051 4.584C30.5417 4.47733 31.107 4.424 31.747 4.424C32.3657 4.424 32.9097 4.47733 33.379 4.584C33.8483 4.69067 34.2537 4.89333 34.595 5.192C34.9363 5.46933 35.203 5.864 35.395 6.376C35.6083 6.888 35.7577 7.54933 35.843 8.36V8.456C36.5257 8.41333 37.1763 8.424 37.795 8.488C38.4137 8.552 38.915 8.70133 39.299 8.936C40.323 9.53333 40.835 10.7067 40.835 12.456C40.835 13.6933 40.5257 14.5787 39.907 15.112C39.3097 15.6453 38.435 15.976 37.283 16.104L36.419 16.2C36.419 16.584 36.4083 16.9467 36.387 17.288C36.3657 17.6293 36.3337 17.9493 36.291 18.248C35.9283 18.3547 35.5763 18.504 35.235 18.696C34.915 18.8667 34.6163 19.0693 34.339 19.304C34.083 19.5387 33.859 19.784 33.667 20.04C33.475 20.2747 33.3363 20.4987 33.251 20.712C33.2083 20.84 33.2083 20.9573 33.251 21.064C33.2937 21.1493 33.3577 21.2133 33.443 21.256C33.5283 21.2773 33.6137 21.2773 33.699 21.256C33.8057 21.2347 33.8803 21.1707 33.923 21.064C34.307 20.3173 34.8297 19.7413 35.491 19.336C36.1737 18.9307 36.8883 18.76 37.635 18.824C38.1043 18.8667 38.5523 18.984 38.979 19.176C39.427 19.368 39.811 19.6667 40.131 20.072C40.4723 20.456 40.7283 20.9467 40.899 21.544C41.091 22.1413 41.155 22.856 41.091 23.688C41.0483 24.392 40.835 25.0213 40.451 25.576C40.067 26.1307 39.5657 26.5893 38.947 26.952C38.3497 27.336 37.6457 27.624 36.835 27.816C36.0457 28.008 35.2243 28.104 34.371 28.104C32.835 28.104 31.619 27.848 30.723 27.336C29.827 26.8453 29.1443 26.1413 28.675 25.224C28.227 24.328 27.9283 23.24 27.779 21.96C27.6297 20.6587 27.5337 19.2187 27.491 17.64V17.16ZM53.9435 27.144C53.2822 27.3787 52.5355 27.56 51.7035 27.688C50.8715 27.816 50.0502 27.88 49.2395 27.88C47.9382 27.88 46.8715 27.7093 46.0395 27.368C45.0795 27.0053 44.3328 26.5253 43.7995 25.928C43.2875 25.352 42.9142 24.584 42.6795 23.624C42.3808 22.4507 42.2422 20.9467 42.2635 19.112C42.2848 17.256 42.3168 14.9307 42.3595 12.136C42.3595 11.4747 42.4448 10.8667 42.6155 10.312C42.8075 9.75733 43.1062 9.288 43.5115 8.904C43.9168 8.49867 44.4395 8.18933 45.0795 7.976C45.7195 7.76267 46.5088 7.656 47.4475 7.656C48.3648 7.656 49.1328 7.76267 49.7515 7.976C50.3915 8.18933 50.9035 8.49867 51.2875 8.904C51.6928 9.288 51.9808 9.75733 52.1515 10.312C52.3222 10.8667 52.4075 11.4747 52.4075 12.136V18.824C52.4288 19.08 52.5035 19.272 52.6315 19.4C52.7595 19.5067 52.8982 19.5493 53.0475 19.528C53.1968 19.5067 53.3355 19.432 53.4635 19.304C53.5915 19.1547 53.6555 18.952 53.6555 18.696V11.912C53.6555 11.3147 53.7408 10.76 53.9115 10.248C54.1035 9.736 54.3702 9.288 54.7115 8.904C55.0528 8.52 55.4795 8.22133 55.9915 8.008C56.5035 7.77333 57.0795 7.656 57.7195 7.656C58.3595 7.656 58.9248 7.77333 59.4155 8.008C59.9275 8.22133 60.3542 8.52 60.6955 8.904C61.0582 9.288 61.3248 9.736 61.4955 10.248C61.6875 10.76 61.7835 11.3147 61.7835 11.912V22.248C61.8262 22.7813 61.8795 23.3467 61.9435 23.944C62.0075 24.5413 62.0182 25.1067 61.9755 25.64C61.9328 26.1733 61.7835 26.6427 61.5275 27.048C61.2928 27.4533 60.8875 27.72 60.3115 27.848C59.3088 28.0613 58.4662 28.168 57.7835 28.168C56.9088 28.168 56.2262 28.04 55.7355 27.784C55.2662 27.528 54.9035 27.2187 54.6475 26.856C54.4128 26.4933 54.2528 26.1093 54.1675 25.704C54.0822 25.32 54.0075 24.9893 53.9435 24.712C53.9008 24.6053 53.8368 24.5307 53.7515 24.488C53.6875 24.4453 53.6128 24.4347 53.5275 24.456C53.4635 24.4773 53.3995 24.5307 53.3355 24.616C53.2928 24.68 53.2822 24.7547 53.3035 24.84C53.3248 25.0107 53.3568 25.2027 53.3995 25.416C53.4635 25.6507 53.5275 25.8747 53.5915 26.088C53.6555 26.3227 53.7088 26.536 53.7515 26.728C53.8155 26.92 53.8795 27.0587 53.9435 27.144ZM79.8938 13.224C80.2991 13.0747 80.4058 12.7867 80.2138 12.36C80.0858 12.104 79.9044 11.8267 79.6698 11.528C79.4564 11.2293 79.2111 10.9307 78.9338 10.632C78.6564 10.3333 78.3578 10.0453 78.0378 9.768C77.7178 9.46933 77.3978 9.224 77.0778 9.032C77.0778 8.776 77.0884 8.456 77.1098 8.072C77.1311 7.66667 77.1524 7.26133 77.1738 6.856C77.1951 6.42933 77.2164 6.03467 77.2378 5.672C77.2591 5.30933 77.2804 5.01067 77.3018 4.776C77.3658 4.17867 77.5044 3.624 77.7178 3.112C77.9311 2.6 78.2191 2.152 78.5818 1.768C78.9658 1.384 79.4138 1.08533 79.9258 0.872C80.4378 0.637332 81.0244 0.519999 81.6858 0.519999C82.3684 0.519999 82.9658 0.637332 83.4778 0.872C84.0111 1.08533 84.4591 1.384 84.8218 1.768C85.1844 2.152 85.4724 2.6 85.6858 3.112C85.8991 3.624 86.0378 4.17867 86.1018 4.776C86.1871 5.62933 86.2618 6.536 86.3258 7.496C86.3898 8.456 86.4431 9.43733 86.4858 10.44C86.5284 11.4213 86.5498 12.4027 86.5498 13.384C86.5711 14.3653 86.5711 15.3147 86.5498 16.232C86.5071 18.1733 86.2618 19.8907 85.8138 21.384C85.3871 22.856 84.6938 24.0827 83.7338 25.064C82.7951 26.0667 81.5898 26.824 80.1178 27.336C78.6458 27.848 76.8644 28.104 74.7738 28.104C73.3871 28.104 72.0324 27.9333 70.7098 27.592C69.3871 27.272 68.2031 26.7067 67.1578 25.896C66.1124 25.0853 65.2698 24.008 64.6298 22.664C63.9898 21.2987 63.6698 19.592 63.6698 17.544C63.6698 15.9227 63.9044 14.5467 64.3738 13.416C64.8431 12.2853 65.4618 11.368 66.2298 10.664C66.9978 9.93867 67.8618 9.416 68.8218 9.096C69.8031 8.776 70.7951 8.616 71.7978 8.616C73.3978 8.616 74.8484 8.968 76.1498 9.672C77.4511 10.376 78.4858 11.432 79.2537 12.84C79.4031 13.16 79.6164 13.288 79.8938 13.224ZM71.2538 19.656C72.0218 19.4853 72.7791 19.2613 73.5258 18.984C74.2724 18.6853 74.9764 18.2907 75.6378 17.8C75.7658 17.7147 75.8298 17.5973 75.8298 17.448C75.8298 17.2987 75.7871 17.16 75.7018 17.032C75.6378 16.904 75.5418 16.808 75.4138 16.744C75.2858 16.68 75.1684 16.6907 75.0618 16.776C74.3791 17.2667 73.7071 17.64 73.0458 17.896C72.3844 18.152 71.6591 18.3547 70.8698 18.504C70.7418 18.5467 70.6564 18.632 70.6138 18.76C70.5711 18.888 70.5604 19.0267 70.5818 19.176C70.6244 19.304 70.6991 19.4213 70.8058 19.528C70.9124 19.6347 71.0618 19.6773 71.2538 19.656ZM101.417 22.44C101.502 22.248 101.524 22.0987 101.481 21.992C101.438 21.864 101.364 21.7787 101.257 21.736C101.172 21.6933 101.065 21.6933 100.937 21.736C100.83 21.7787 100.745 21.864 100.681 21.992C100.062 22.9947 99.3583 23.752 98.569 24.264C97.801 24.7547 96.8303 25 95.657 25C94.697 25 93.7477 24.8293 92.809 24.488C91.8703 24.1253 91.0383 23.6133 90.313 22.952C89.609 22.2907 89.0543 21.48 88.649 20.52C88.265 19.5387 88.137 18.4187 88.265 17.16L89.001 10.824C89.1077 9.864 89.481 9.096 90.121 8.52C90.7823 7.944 91.593 7.656 92.553 7.656H94.665C95.625 7.656 96.329 7.944 96.777 8.52C97.225 9.07467 97.353 9.82133 97.161 10.76L95.753 17.48C95.7103 17.6293 95.721 17.768 95.785 17.896C95.849 18.0027 95.9343 18.0773 96.041 18.12C96.169 18.1413 96.297 18.12 96.425 18.056C96.553 17.992 96.649 17.864 96.713 17.672L98.281 10.76C98.4943 9.82133 98.9637 9.07467 99.689 8.52C100.436 7.944 101.289 7.656 102.249 7.656H104.233C105.385 7.656 106.313 8.008 107.017 8.712C107.742 9.416 108.105 10.344 108.105 11.496L108.137 20.488C108.158 24.4987 107.262 27.8267 105.449 30.472C104.958 31.1547 104.393 31.7413 103.753 32.232C103.134 32.744 102.452 33.16 101.705 33.48C100.98 33.8 100.212 34.0347 99.401 34.184C98.5903 34.3547 97.769 34.44 96.937 34.44C96.681 34.44 96.3397 34.4187 95.913 34.376C95.4863 34.3547 95.017 34.3013 94.505 34.216C93.993 34.152 93.4703 34.0667 92.937 33.96C92.425 33.8533 91.9663 33.7253 91.561 33.576C90.985 33.3627 90.537 33.0747 90.217 32.712C89.897 32.3493 89.673 31.9333 89.545 31.464C89.4383 31.016 89.4063 30.536 89.449 30.024C89.4917 29.5333 89.5983 29.0533 89.769 28.584C89.9183 28.1573 90.0997 27.752 90.313 27.368C90.5263 26.984 90.7823 26.6533 91.081 26.376C91.3797 26.0987 91.7317 25.8853 92.137 25.736C92.5423 25.608 93.001 25.576 93.513 25.64C93.8117 25.6827 94.2063 25.7147 94.697 25.736C95.209 25.7787 95.657 25.8 96.041 25.8C97.385 25.8 98.4623 25.4907 99.273 24.872C100.105 24.2533 100.82 23.4427 101.417 22.44ZM122.851 28.104C120.632 28.104 118.723 27.7733 117.123 27.112C115.523 26.472 114.2 25.5547 113.155 24.36C112.131 23.144 111.363 21.6827 110.851 19.976C110.36 18.248 110.115 16.3067 110.115 14.152C110.115 11.9973 110.339 10.0667 110.787 8.36C111.235 6.632 111.96 5.17067 112.963 3.976C113.965 2.76 115.277 1.832 116.899 1.192C118.52 0.530666 120.504 0.199999 122.851 0.199999C125.197 0.199999 127.181 0.530666 128.803 1.192C130.424 1.832 131.736 2.76 132.739 3.976C133.741 5.17067 134.467 6.632 134.915 8.36C135.363 10.0667 135.587 11.9973 135.587 14.152C135.587 16.3067 135.331 18.248 134.819 19.976C134.328 21.6827 133.56 23.144 132.515 24.36C131.491 25.5547 130.168 26.472 128.547 27.112C126.947 27.7733 125.048 28.104 122.851 28.104ZM121.699 16.232C121.613 16.3387 121.603 16.4453 121.667 16.552C121.731 16.6587 121.827 16.7333 121.955 16.776C122.083 16.8187 122.221 16.8293 122.371 16.808C122.541 16.7867 122.68 16.712 122.787 16.584C123.235 15.944 123.533 15.2187 123.683 14.408C123.832 13.5973 123.917 12.7867 123.939 11.976C123.939 11.784 123.885 11.6453 123.779 11.56C123.672 11.4747 123.544 11.432 123.395 11.432C123.267 11.4107 123.139 11.432 123.011 11.496C122.883 11.56 122.819 11.656 122.819 11.784C122.776 12.5733 122.669 13.32 122.499 14.024C122.328 14.728 122.061 15.464 121.699 16.232ZM146.741 28.936C146.741 29.192 146.73 29.4907 146.709 29.832C146.687 30.1733 146.655 30.5147 146.613 30.856C146.591 31.2187 146.559 31.56 146.517 31.88C146.495 32.2 146.474 32.4773 146.453 32.712C146.389 33.288 146.261 33.832 146.069 34.344C145.877 34.856 145.61 35.304 145.269 35.688C144.927 36.072 144.501 36.3707 143.989 36.584C143.477 36.8187 142.89 36.936 142.229 36.936C141.546 36.936 140.949 36.8187 140.437 36.584C139.946 36.3707 139.53 36.072 139.189 35.688C138.847 35.304 138.581 34.856 138.389 34.344C138.197 33.832 138.069 33.288 138.005 32.712C137.813 30.792 137.685 28.8933 137.621 27.016C137.557 25.1387 137.525 23.2507 137.525 21.352V10.376C137.525 9.97067 137.631 9.608 137.845 9.288C138.079 8.94667 138.378 8.66933 138.741 8.456C139.103 8.22133 139.509 8.05067 139.957 7.944C140.405 7.816 140.863 7.752 141.333 7.752C141.717 7.752 142.101 7.79467 142.485 7.88C142.89 7.96533 143.274 8.11467 143.637 8.328C144.618 8.136 145.514 7.98667 146.325 7.88C147.157 7.77333 147.903 7.72 148.565 7.72C150.421 7.72 152.053 8.04 153.461 8.68C154.89 9.32 156.053 10.184 156.949 11.272C157.866 12.36 158.495 13.6293 158.837 15.08C159.199 16.5093 159.253 18.024 158.997 19.624C158.762 21.032 158.314 22.28 157.653 23.368C156.991 24.4347 156.202 25.3307 155.285 26.056C154.367 26.8027 153.354 27.3573 152.245 27.72C151.157 28.104 150.058 28.296 148.949 28.296C147.605 28.296 146.303 28.0293 145.045 27.496C143.786 26.9627 142.73 26.0987 141.877 24.904C141.77 24.776 141.653 24.712 141.525 24.712C141.418 24.6907 141.322 24.7227 141.237 24.808C141.151 24.872 141.098 24.968 141.077 25.096C141.077 25.224 141.13 25.3627 141.237 25.512C141.621 26.0027 142.005 26.4293 142.389 26.792C142.773 27.176 143.178 27.5067 143.605 27.784C144.053 28.0613 144.533 28.296 145.045 28.488C145.557 28.68 146.122 28.8293 146.741 28.936ZM147.221 19.592C148.031 19.4213 148.81 19.1973 149.557 18.92C150.303 18.6427 150.986 18.2587 151.605 17.768C151.754 17.6613 151.829 17.5333 151.829 17.384C151.829 17.2347 151.786 17.1067 151.701 17C151.637 16.872 151.541 16.7867 151.413 16.744C151.306 16.68 151.21 16.68 151.125 16.744C150.421 17.2347 149.727 17.608 149.045 17.864C148.383 18.12 147.658 18.3227 146.869 18.472C146.741 18.5147 146.655 18.6 146.613 18.728C146.57 18.856 146.559 18.9947 146.581 19.144C146.623 19.272 146.698 19.3893 146.805 19.496C146.911 19.6027 147.05 19.6347 147.221 19.592ZM170.822 22.184C170.886 22.312 170.971 22.3973 171.078 22.44C171.185 22.4613 171.281 22.4613 171.366 22.44C171.451 22.3973 171.515 22.3227 171.558 22.216C171.601 22.1093 171.59 21.992 171.526 21.864C171.27 21.3733 170.961 20.8827 170.598 20.392C170.235 19.88 169.798 19.4107 169.286 18.984C168.795 18.536 168.23 18.152 167.59 17.832C166.95 17.4907 166.235 17.256 165.446 17.128C163.931 16.8507 162.737 16.3707 161.862 15.688C160.987 15.0053 160.55 13.9813 160.55 12.616C160.55 11.8693 160.763 11.1973 161.19 10.6C161.617 9.98133 162.203 9.45867 162.95 9.032C163.718 8.584 164.614 8.24267 165.638 8.008C166.683 7.77333 167.814 7.656 169.03 7.656C169.926 7.656 170.897 7.74133 171.942 7.912C172.987 8.06133 173.947 8.328 174.822 8.712C175.718 9.07467 176.443 9.56533 176.998 10.184C177.553 10.8027 177.798 11.56 177.734 12.456C177.691 13.032 177.553 13.5227 177.318 13.928C177.083 14.3333 176.785 14.6533 176.422 14.888C176.059 15.1227 175.643 15.2933 175.174 15.4C174.726 15.5067 174.267 15.56 173.798 15.56C173.094 15.56 172.454 15.4107 171.878 15.112C171.302 14.8133 170.758 14.4613 170.246 14.056C169.691 13.6293 169.201 13.2347 168.774 12.872C168.347 12.5093 167.857 12.0613 167.302 11.528C167.195 11.4427 167.089 11.4 166.982 11.4C166.875 11.4 166.779 11.432 166.694 11.496C166.63 11.56 166.587 11.6453 166.566 11.752C166.566 11.8373 166.619 11.9227 166.726 12.008C167.046 12.328 167.419 12.6907 167.846 13.096C168.294 13.48 168.806 13.8853 169.382 14.312C169.979 14.7387 170.662 15.1653 171.43 15.592C172.219 16.0187 173.115 16.4133 174.118 16.776C174.694 16.9893 175.249 17.2667 175.782 17.608C176.337 17.928 176.817 18.3333 177.222 18.824C177.627 19.3147 177.937 19.88 178.15 20.52C178.363 21.16 178.438 21.8853 178.374 22.696C178.31 23.5493 178.022 24.3173 177.51 25C177.019 25.6613 176.369 26.216 175.558 26.664C174.769 27.1333 173.851 27.4853 172.806 27.72C171.761 27.976 170.662 28.104 169.51 28.104C168.315 28.104 167.195 27.976 166.15 27.72C165.126 27.4853 164.209 27.1333 163.398 26.664C162.609 26.1947 161.947 25.6187 161.414 24.936C160.902 24.2533 160.571 23.464 160.422 22.568C160.315 21.9493 160.305 21.352 160.39 20.776C160.475 20.1787 160.667 19.656 160.966 19.208C161.286 18.7387 161.723 18.3653 162.278 18.088C162.833 17.8107 163.547 17.672 164.422 17.672C165.254 17.672 165.99 17.8107 166.63 18.088C167.27 18.344 167.846 18.6853 168.358 19.112C168.87 19.5387 169.318 20.0187 169.702 20.552C170.107 21.0853 170.481 21.6293 170.822 22.184Z" fill="#8D4BF6"/>
</svg>
